<svg xmlns="http://www.w3.org/2000/svg" id="Umbrella" viewBox="0 0 64 64"><defs><style>.cls-1{stroke-width:0}</style></defs><path d="M33,5.03v-2.03c0-.55-.45-1-1-1s-1,.45-1,1v2.03c-14.98.56-27,13.79-27,29.97,0,.55.45,1,1,1s1-.45,1-1c0-2.71,3.66-5,8-5s8,2.29,8,5c0,.55.45,1,1,1s1-.45,1-1c0-2.5,3.12-4.64,7-4.95v16.95h-1c-.55,0-1,.45-1,1v7c0,3.86,3.14,7,7,7s7-3.14,7-7v-2c0-.55-.45-1-1-1h-4c-.55,0-1,.45-1,1v2c0,.55-.45,1-1,1s-1-.45-1-1v-7c0-.55-.45-1-1-1h-1v-16.95c3.88.31,7,2.45,7,4.95,0,.55.45,1,1,1s1-.45,1-1c0-2.71,3.66-5,8-5s8,2.29,8,5c0,.55.45,1,1,1s1-.45,1-1c0-16.18-12.02-29.41-27-29.97ZM22.09,30.86c-1.8-1.74-4.72-2.86-8.09-2.86-3.1,0-5.84.94-7.66,2.45,1.81-11.86,10.56-21.22,21.59-23.1-3.4,4.26-5.39,13.74-5.84,23.51ZM50,28c-3.37,0-6.29,1.12-8.09,2.86-.45-9.77-2.44-19.25-5.84-23.51,11.03,1.88,19.78,11.24,21.59,23.1-1.82-1.51-4.56-2.45-7.66-2.45Z" class="cls-1"/></svg>